<?xml version="1.0" encoding="UTF-8"?>
<svg width="24px" height="24px" viewBox="0 0 24 24" version="1.1" xmlns="http://www.w3.org/2000/svg" xmlns:xlink="http://www.w3.org/1999/xlink">
    <!-- Generator: Sketch 49 (51002) - http://www.bohemiancoding.com/sketch -->
    <title>- icon / search</title>
    <desc>Created with Sketch.</desc>
    <defs>
        <path d="M16.3198574,14.9056439 L20.7781746,19.363961 L19.363961,20.7781746 L14.9056439,16.3198574 C13.5509601,17.3729184 11.8487115,18 10,18 C5.581722,18 2,14.418278 2,10 C2,5.581722 5.581722,2 10,2 C14.418278,2 18,5.581722 18,10 C18,11.8487115 17.3729184,13.5509601 16.3198574,14.9056439 Z M10,16 C13.3137085,16 16,13.3137085 16,10 C16,6.6862915 13.3137085,4 10,4 C6.6862915,4 4,6.6862915 4,10 C4,13.3137085 6.6862915,16 10,16 Z" id="path-1"></path>
    </defs>
    <g id="--icon-/-search" stroke="none" stroke-width="1" fill="none" fill-rule="evenodd">
        <mask id="mask-2" fill="white">
            <use xlink:href="#path-1"></use>
        </mask>
        <use id="Combined-Shape" fill="#231F20" xlink:href="#path-1"></use>
        <g id="color-/-black" mask="url(#mask-2)" fill="#000000">
            <rect id="colour" x="0" y="0" width="24" height="24"></rect>
        </g>
    </g>
</svg>
